Coordinates
version=1
nRows=15
nColumns=34
inDegrees=yes

Units are S.I. units (second, meters, Newtons, ...)
If the header above contains a line with 'inDegrees', this indicates whether rotational values are in degrees (yes) or radians (no).

endheader
time	pelvis_tilt	pelvis_list	pelvis_rotation	pelvis_tx	pelvis_ty	pelvis_tz	hip_flexion_r	hip_adduction_r	hip_rotation_r	knee_angle_r	ankle_angle_r	subtalar_angle_r	mtp_angle_r	hip_flexion_l	hip_adduction_l	hip_rotation_l	knee_angle_l	ankle_angle_l	subtalar_angle_l	mtp_angle_l	lumbar_extension	lumbar_bending	lumbar_rotation	arm_flex_r	arm_add_r	arm_rot_r	elbow_flex_r	pro_sup_r	arm_flex_l	arm_add_l	arm_rot_l	elbow_flex_l	pro_sup_l
      0.00000000	      0.70506485	      2.48457758	    -23.36504282	      0.10796020	      0.71101834	      0.04004936	     68.67107367	    -16.72394537	     -7.07559353	     88.64934091	     29.10243385	     -9.79158563	      0.00000000	     71.02646131	    -19.07505308	     -8.98016053	     83.92428135	     27.12983812	     -7.62512050	      0.00000000	    -22.96163101	     -0.45936315	      0.42881399	     56.63758650	    -19.67634467	     40.06175973	    104.23008824	    119.74817918	     61.70484834	    -21.60508185	     39.94719912	    103.60561045	    119.48279065
      0.01666670	      0.66860072	      2.51676057	    -23.38359234	      0.10761001	      0.71198380	      0.04015626	     68.61054810	    -16.71948449	     -7.13907762	     88.44102813	     29.02459682	     -9.78697536	      0.00000000	     70.91475243	    -19.03825911	     -9.05127793	     83.68669679	     27.05139474	     -7.60622797	      0.00000000	    -22.95191031	     -0.47553624	      0.44054977	     56.53445252	    -19.52165252	     40.14276341	    104.28626009	    119.74817918	     61.67595122	    -21.48917743	     39.90446464	    103.68100626	    119.51965486
      0.03333330	      0.92861666	      2.59522811	    -23.38967772	      0.10783771	      0.71509368	      0.04088789	     68.02921724	    -16.82374492	     -7.16766157	     88.02520748	     29.03742229	     -9.89397384	      0.00000000	     70.14748876	    -19.06107591	     -9.46885180	     83.17156222	     26.98340825	     -7.51773872	      0.00000000	    -23.14773778	     -0.70765215	      0.26214773	     56.87902244	    -19.50136882	     40.02572214	    104.27850815	    119.74817918	     61.46208829	    -21.56854820	     39.20882235	    103.71799276	    119.74817918
      0.05000000	      0.77199644	      2.67994323	    -23.37400083	      0.10853369	      0.71772020	      0.04196826	     67.76568264	    -16.80251267	     -7.31531257	     87.56384860	     28.98571982	     -9.84240794	      0.00000000	     69.87566959	    -19.07758181	     -9.60911181	     82.69623998	     26.96117388	     -7.46656285	      0.00000000	    -22.75514987	     -0.78892181	      0.22078506	     57.05791428	    -19.43657451	     40.01969910	    104.38367254	    119.74817918	     61.47951263	    -21.50835958	     39.16163632	    103.79893934	    119.74817918
      0.06666670	      1.12572333	      2.75231430	    -23.46454831	      0.10950322	      0.72221471	      0.04274889	     66.90307511	    -16.98324972	     -7.43038268	     86.96177858	     29.07722393	     -9.50871529	      0.00000000	     68.73288773	    -19.15484949	    -10.25397824	     82.01113661	     27.24647408	     -6.96903362	      0.00000000	    -23.11301167	     -0.97225244	      0.01662574	     57.47964055	    -19.27221520	     40.15444539	    104.57781383	    119.74817918	     61.09059657	    -21.63110986	     38.16239904	    104.56284318	    119.74817918
      0.08333330	      0.91338976	      2.88848071	    -23.48548942	      0.11032684	      0.72603705	      0.04368199	     66.51945774	    -17.05405187	     -7.75682242	     86.21724205	     29.05511882	     -9.29147676	      0.00000000	     68.28227383	    -19.18441616	    -10.61858579	     81.25566818	     27.21536594	     -6.76098798	      0.00000000	    -22.86637137	     -1.04891906	      0.02628267	     57.60939416	    -19.48854478	     40.16303437	    105.30694104	    119.74817918	     61.01361073	    -21.84291668	     37.95794210	    105.32958909	    119.74817918
      0.10000000	      1.04112665	      2.97760393	    -23.52362510	      0.11206066	      0.73055164	      0.04467661	     65.74997318	    -17.19544256	     -7.94818929	     85.56074013	     29.31450585	     -8.80090546	      0.00000000	     67.35603635	    -19.19079735	    -11.12498965	     80.58662152	     27.56370667	     -6.29997411	      0.00000000	    -22.94010283	     -1.16498134	     -0.04042645	     57.80436804	    -19.58228420	     40.17477041	    105.77200913	    119.74817918	     60.69830282	    -21.91156598	     37.17092358	    106.06484325	    119.74817918
      0.11666670	      0.75995125	      3.11467861	    -23.51519266	      0.11340827	      0.73485368	      0.04575753	     65.35827440	    -17.18873755	     -8.21818779	     84.75804593	     29.22698843	     -8.71239969	      0.00000000	     66.94562328	    -19.13287755	    -11.37676635	     79.80372186	     27.46598656	     -6.20889239	      0.00000000	    -22.43410534	     -1.20520616	      0.04004651	     57.66257856	    -19.65345976	     40.25630893	    105.94376277	    119.74817918	     60.52241822	    -21.95017559	     37.15958419	    106.28118329	    119.74817918
      0.13333330	      1.16409754	      3.11911590	    -23.59001496	      0.11541914	      0.74069508	      0.04678437	     64.15010937	    -17.50887131	     -8.57889882	     83.97933405	     29.49395664	     -8.01382458	      0.00000000	     65.49499367	    -19.19747705	    -12.13650685	     78.94528169	     27.77774445	     -5.67425419	      0.00000000	    -22.76574637	     -1.28367129	      0.02254415	     57.82931013	    -19.83349629	     40.41720649	    106.54897857	    119.74817918	     60.11129695	    -21.99718591	     36.53178529	    107.12392234	    119.74817918
      0.15000000	      0.89681096	      3.26412797	    -23.57748822	      0.11702779	      0.74494963	      0.04799182	     63.75546410	    -17.45510103	     -8.76954351	     83.21193226	     29.43495297	     -7.93010703	      0.00000000	     65.07680919	    -19.08944491	    -12.31637654	     78.19003883	     27.73104141	     -5.58374100	      0.00000000	    -22.21343433	     -1.29805992	      0.10491005	     57.76556754	    -19.93762152	     40.50402775	    106.64161126	    119.74817918	     59.95149822	    -22.12260726	     36.57909009	    107.19605349	    119.74817918
      0.16666670	      0.65248514	      3.37746866	    -23.54198942	      0.11893721	      0.74952242	      0.04931634	     63.26470576	    -17.41658745	     -8.99784483	     82.42199083	     29.37130355	     -7.84897599	      0.00000000	     64.52549772	    -19.01302479	    -12.60587308	     77.31840062	     27.68509369	     -5.48861861	      0.00000000	    -21.63833385	     -1.26134076	      0.16453339	     57.58800984	    -20.13835722	     40.66460509	    106.75782772	    119.74817918	     59.69739390	    -22.28112556	     36.64344443	    107.31731412	    119.74817918
      0.18333330	      1.49037021	      3.23637015	    -23.58923908	      0.12142627	      0.75684562	      0.05030152	     61.43539575	    -17.71153066	     -9.26282132	     81.52427547	     29.62202089	     -7.31677368	      0.00000000	     62.41547815	    -18.98104296	    -13.43733196	     76.32756527	     28.22067659	     -4.72533449	      0.00000000	    -22.42630517	     -1.33051809	      0.05728127	     57.99014636	    -20.43542021	     41.25387914	    107.25185834	    119.72859361	     59.53712789	    -22.40956250	     36.41039311	    107.93070489	    119.74817918
      0.20000000	      1.22281765	      3.36451885	    -23.54471409	      0.12326448	      0.76129684	      0.05132017	     60.99488850	    -17.61232338	     -9.39948845	     80.67519873	     29.55682688	     -7.23052718	      0.00000000	     61.96125017	    -18.84944165	    -13.66386810	     75.48782477	     28.15080183	     -4.63592956	      0.00000000	    -21.78293183	     -1.24722686	      0.14119726	     57.94955014	    -20.58529351	     41.28615369	    107.22732111	    119.72796885	     59.42824695	    -22.61085885	     36.50573025	    107.92098832	    119.74817918
      0.21666670	      1.02427584	      3.45702883	    -23.50237359	      0.12568004	      0.76593494	      0.05260353	     60.44809127	    -17.53740635	     -9.55353646	     79.90193457	     29.45524102	     -7.16404019	      0.00000000	     61.37573625	    -18.76176198	    -13.91145720	     74.67112390	     28.05068011	     -4.54034612	      0.00000000	    -21.14819448	     -1.17267972	      0.17262856	     57.85361692	    -20.81424368	     41.35375121	    107.20479780	    119.72817395	     59.21210383	    -22.81413765	     36.66179759	    107.91073784	    119.74817918
      0.23333330	      2.03880762	      3.16816126	    -23.50126005	      0.12851862	      0.77382934	      0.05400603	     58.32619550	    -17.73256169	     -9.84825176	     78.99636359	     29.39630031	     -7.15939164	      0.00000000	     59.11152955	    -18.69257487	    -14.57323924	     73.72492240	     28.22942127	     -4.04911068	      0.00000000	    -22.03479904	     -1.19497911	      0.19352834	     58.03731689	    -21.05135003	     41.60565873	    107.13284818	    119.68411806	     59.37376343	    -22.98055346	     37.07146864	    107.74551675	    119.72237473
